<?xml version="1.0" encoding="UTF-8"?>
<svg id="Layer_1" data-name="Layer 1" xmlns="http://www.w3.org/2000/svg" viewBox="0 0 595.28 841.89">
  <defs>
    <style>
      .cls-1 {
        fill: #756a65;
      }

      .cls-1, .cls-2, .cls-3, .cls-4, .cls-5, .cls-6, .cls-7, .cls-8, .cls-9, .cls-10, .cls-11, .cls-12 {
        stroke-width: 0px;
      }

      .cls-2 {
        fill: #867c78;
      }

      .cls-3 {
        fill: #726662;
      }

      .cls-4 {
        fill: #18130b;
      }

      .cls-5 {
        fill: #453b36;
      }

      .cls-6 {
        fill: #1bb9db;
      }

      .cls-7 {
        fill: #231c16;
      }

      .cls-8 {
        fill: #211a14;
      }

      .cls-9 {
        fill: #332a25;
      }

      .cls-10 {
        fill: #342b26;
      }

      .cls-11 {
        fill: #fdc600;
      }

      .cls-12 {
        fill: #00b3e0;
      }
    </style>
  </defs>
  <polygon class="cls-6" points="5.11 453.95 5.11 378.59 17.67 369.86 34.6 363.85 72.28 363.85 129.61 363.85 177.12 363.85 219.17 363.85 238.28 363.85 248.66 368.76 251.39 374.77 284.15 373.13 299.99 378.59 304.9 380.78 347.5 381.87 361.15 380.23 445.79 383.51 448.52 376.95 463.81 376.41 484.56 376.95 512.41 378.05 522.24 379.14 526.06 385.15 577.39 386.78 590.5 387.88 585.04 453.95 583.4 459.96 573.02 462.69 560.46 465.96 376.44 462.69 294.7 461.6 153.64 458.87 42.24 458.87 13.3 457.23 5.11 453.95"/>
  <polygon class="cls-10" points="14.34 443.73 24.57 433.7 52.07 433.7 62.95 428.69 222.21 428.69 303.41 428.69 306.63 382.93 61.03 382.93 11.78 382.93 14.34 443.73"/>
  <polygon class="cls-11" points="507.86 463.93 499.49 450.73 509.82 435.5 560 435.5 572.3 429.92 580.66 419.77 584.6 400.47 553.11 385.75 577.22 385.75 590.5 385.75 590.5 414.18 587.88 439.56 584.1 460.38 559.02 465.96 507.86 463.93"/>
  <polygon class="cls-9" points="343.04 430.64 348.45 382.93 590.5 389.81 587.43 417.36 580.27 427.69 568.51 435.07 563.91 435.07 343.04 430.64"/>
  <polygon class="cls-3" points="297.8 460.66 304.09 382.93 350.48 382.93 345.47 460.66 297.8 460.66"/>
  <circle class="cls-8" cx="85.74" cy="453.25" r="17.56"/>
  <circle class="cls-4" cx="267.82" cy="455.85" r="17.8"/>
  <circle class="cls-7" cx="473.87" cy="460.66" r="17.8"/>
  <circle class="cls-12" cx="85.74" cy="453.25" r="11.2"/>
  <circle class="cls-1" cx="267.82" cy="455.85" r="11.2"/>
  <circle class="cls-2" cx="473.87" cy="460.66" r="11.2"/>
  <polyline class="cls-1" points="306.63 382.93 306.26 388.56 301.42 460.66"/>
  <polyline class="cls-5" points="307.15 460.66 309.85 427.01 313.39 382.93 311.05 432.05 309.03 449.72 307.98 459.8 313.39 460.28"/>
  <polyline class="cls-5" points="310.27 460.66 312.97 427.01 316.51 382.93 314.17 432.05 312.15 449.72 311.1 459.8 316.51 460.28"/>
  <polyline class="cls-5" points="313.39 460.66 316.09 427.01 319.63 382.93 317.29 432.05 315.27 449.72 314.22 459.8 319.63 460.28"/>
  <polyline class="cls-5" points="304.03 460.66 306.73 427.01 310.27 382.93 307.93 432.05 305.91 449.72 304.86 459.8 310.27 460.28"/>
  <polyline class="cls-5" points="300.91 460.66 303.61 427.01 307.15 382.93 304.81 432.05 302.79 449.72 301.74 459.8 307.15 460.28"/>
  <polyline class="cls-5" points="316.51 460.66 319.21 427.01 322.75 382.93 320.41 432.05 318.39 449.72 317.34 459.8 322.75 460.28"/>
  <polyline class="cls-5" points="298.3 460.66 301 427.01 304.54 382.93 302.2 432.05 300.18 449.72 299.14 459.8 304.54 460.28"/>
  <polyline class="cls-5" points="319.63 460.66 322.33 427.01 325.87 382.93 323.53 432.05 321.51 449.72 320.47 459.8 325.87 460.28"/>
  <polyline class="cls-5" points="322.75 460.66 325.45 427.01 328.99 382.93 326.65 432.05 324.63 449.72 323.59 459.8 328.99 460.28"/>
  <polyline class="cls-5" points="325.87 460.66 328.57 427.01 332.11 382.93 329.77 432.05 327.75 449.72 326.71 459.8 332.11 460.28"/>
  <polyline class="cls-5" points="328.99 460.66 331.69 427.01 335.23 382.93 332.89 432.05 330.88 449.72 329.83 459.8 335.23 460.28"/>
  <polyline class="cls-5" points="332.11 460.66 334.81 427.01 338.35 382.93 336.01 432.05 334 449.72 332.95 459.8 338.35 460.28"/>
  <polyline class="cls-5" points="342.25 460.66 344.96 427.01 348.5 382.93 346.16 432.05 344.14 449.72 343.09 459.8 348.5 460.28"/>
  <polyline class="cls-5" points="339.13 460.66 341.84 427.01 345.37 382.93 343.04 432.05 341.02 449.72 339.97 459.8 345.37 460.28"/>
  <polyline class="cls-5" points="336.01 460.66 338.71 427.01 342.25 382.93 339.91 432.05 337.9 449.72 336.85 459.8 342.25 460.28"/>
</svg>