<?xml version="1.0" encoding="UTF-8"?>
<svg id="Layer_1" data-name="Layer 1" xmlns="http://www.w3.org/2000/svg" viewBox="0 0 496.07 97.12">
  <defs>
    <style>
      .cls-1 {
        fill: #766b66;
      }

      .cls-1, .cls-2, .cls-3, .cls-4, .cls-5, .cls-6, .cls-7, .cls-8, .cls-9, .cls-10, .cls-11, .cls-12 {
        stroke-width: 0px;
      }

      .cls-2 {
        fill: #877c78;
      }

      .cls-3 {
        fill: #463c37;
      }

      .cls-4 {
        fill: #352c27;
      }

      .cls-5 {
        fill: #18130e;
      }

      .cls-6 {
        fill: #08b4e0;
      }

      .cls-7 {
        fill: #221b15;
      }

      .cls-8 {
        fill: #1cb9da;
      }

      .cls-9 {
        fill: #241d17;
      }

      .cls-10 {
        fill: #736763;
      }

      .cls-11 {
        fill: #342b25;
      }

      .cls-12 {
        fill: #fdc605;
      }
    </style>
  </defs>
  <polygon class="cls-8" points="0 76.35 0 12.49 10.64 5.09 24.99 0 56.92 0 105.5 0 145.76 0 181.4 0 197.59 0 206.39 4.16 208.7 9.25 236.46 7.86 249.88 12.49 254.05 14.35 290.15 15.27 301.71 13.88 373.44 16.66 375.75 11.1 388.71 10.64 406.29 11.1 429.89 12.03 438.22 12.96 441.46 18.05 484.96 19.43 496.07 20.36 491.44 76.35 490.05 81.44 481.25 83.76 470.61 86.53 314.67 83.76 245.4 82.83 125.87 80.52 31.46 80.52 6.94 79.13 0 76.35"/>
  <polygon class="cls-4" points="7.82 67.69 16.49 59.19 39.79 59.19 49.01 54.95 183.97 54.95 252.78 54.95 255.51 16.17 47.39 16.17 5.65 16.17 7.82 67.69"/>
  <polygon class="cls-12" points="426.04 84.81 418.94 73.62 427.7 60.72 470.22 60.72 480.64 55.99 487.73 47.39 491.07 31.03 464.38 18.56 484.81 18.56 496.07 18.56 496.07 42.65 493.85 64.16 490.64 81.8 469.39 86.53 426.04 84.81"/>
  <polygon class="cls-11" points="286.37 56.6 290.95 16.17 496.07 22 493.46 45.34 487.4 54.1 477.43 60.35 473.53 60.35 286.37 56.6"/>
  <polygon class="cls-10" points="248.03 82.04 253.36 16.17 292.67 16.17 288.42 82.04 248.03 82.04"/>
  <circle class="cls-7" cx="68.33" cy="75.76" r="14.88"/>
  <circle class="cls-5" cx="222.62" cy="77.96" r="15.08"/>
  <circle class="cls-9" cx="397.23" cy="82.04" r="15.08"/>
  <circle class="cls-6" cx="68.33" cy="75.76" r="9.49"/>
  <circle class="cls-1" cx="222.62" cy="77.96" r="9.49"/>
  <circle class="cls-2" cx="397.23" cy="82.04" r="9.49"/>
  <polyline class="cls-1" points="255.51 16.17 255.2 20.94 251.1 82.04"/>
  <polyline class="cls-3" points="255.95 82.04 258.24 53.52 261.24 16.17 259.26 57.79 257.55 72.77 256.66 81.31 261.24 81.72"/>
  <polyline class="cls-3" points="258.6 82.04 260.88 53.52 263.88 16.17 261.9 57.79 260.19 72.77 259.3 81.31 263.88 81.72"/>
  <polyline class="cls-3" points="261.24 82.04 263.53 53.52 266.53 16.17 264.54 57.79 262.83 72.77 261.94 81.31 266.53 81.72"/>
  <polyline class="cls-3" points="253.31 82.04 255.6 53.52 258.6 16.17 256.61 57.79 254.9 72.77 254.01 81.31 258.6 81.72"/>
  <polyline class="cls-3" points="250.66 82.04 252.95 53.52 255.95 16.17 253.97 57.79 252.26 72.77 251.37 81.31 255.95 81.72"/>
  <polyline class="cls-3" points="263.88 82.04 266.17 53.52 269.17 16.17 267.19 57.79 265.48 72.77 264.59 81.31 269.17 81.72"/>
  <polyline class="cls-3" points="248.45 82.04 250.74 53.52 253.74 16.17 251.76 57.79 250.05 72.77 249.16 81.31 253.74 81.72"/>
  <polyline class="cls-3" points="266.53 82.04 268.82 53.52 271.82 16.17 269.83 57.79 268.12 72.77 267.24 81.31 271.82 81.72"/>
  <polyline class="cls-3" points="269.17 82.04 271.46 53.52 274.46 16.17 272.48 57.79 270.76 72.77 269.88 81.31 274.46 81.72"/>
  <polyline class="cls-3" points="271.82 82.04 274.1 53.52 277.1 16.17 275.12 57.79 273.41 72.77 272.53 81.31 277.1 81.72"/>
  <polyline class="cls-3" points="274.46 82.04 276.75 53.52 279.75 16.17 277.76 57.79 276.06 72.77 275.17 81.31 279.75 81.72"/>
  <polyline class="cls-3" points="277.1 82.04 279.39 53.52 282.39 16.17 280.41 57.79 278.71 72.77 277.82 81.31 282.39 81.72"/>
  <polyline class="cls-3" points="285.7 82.04 287.99 53.52 290.99 16.17 289.01 57.79 287.3 72.77 286.41 81.31 290.99 81.72"/>
  <polyline class="cls-3" points="283.05 82.04 285.35 53.52 288.34 16.17 286.37 57.79 284.65 72.77 283.76 81.31 288.34 81.72"/>
  <polyline class="cls-3" points="280.41 82.04 282.7 53.52 285.7 16.17 283.71 57.79 282.01 72.77 281.12 81.31 285.7 81.72"/>
</svg>