<?xml version="1.0" encoding="utf-8"?>
<!-- Generator: Adobe Illustrator 28.0.0, SVG Export Plug-In . SVG Version: 6.00 Build 0)  -->
<svg version="1.1" id="Layer_1" xmlns="http://www.w3.org/2000/svg" xmlns:xlink="http://www.w3.org/1999/xlink" x="0px" y="0px"
	 viewBox="0 0 350.8 106.8" style="enable-background:new 0 0 350.8 106.8;" xml:space="preserve">
<style type="text/css">
	.st0{fill:#010101;}
</style>
<g>
	<path class="st0" d="M83.2,69.1c-0.4,1.5-1,2.4-1.8,2.7c-0.3,0.1-0.6,0.1-1,0.1s-0.7-0.1-0.9,0.1l-7.1,3c-0.2,0.1-0.5,0.4-0.7,0.8
		s-0.5,0.7-0.7,0.8c-0.7,0.3-11.9,5.7-11,3.5c1.2-2.9,2.5-10.8,4-10.9c0.6-0.1-2.1,3.3-2,2.2c0.1-0.5,0.1-0.9,0.1-1.2V37.9
		c-0.1-0.3-0.2-0.6-0.4-0.8c-0.2-0.2-0.3-0.4-0.3-0.6c0.1-0.6,0.6-1.1,1.7-1.3c0.7-0.2,2.1,0.1,4.4,0.7c2.5,0.7,3.8,1.6,3.8,2.6
		c0,0.3-0.2,0.6-0.5,1.2c-0.3,0.5-0.5,0.9-0.5,1.2v26.5l5-2.2c0.3-0.3,0.8-0.5,1.6-0.9c0.4-0.1,1.7,0.6,3.6,2S83.3,68.7,83.2,69.1z"
		/>
	<path class="st0" d="M97,40.4c0,0.2-2.8-2.1-2.9-1.7c-0.1,0.4-0.2,0.6-0.3,0.7c-0.2,0.6-0.4,1.6-0.6,3v29.5c0,0.4,0.1,0.7,0.3,1
		c0.2,0.3,0.3,0.6,0.3,0.7c0,2.1,2.6,5.1,1.9,5.2c-0.3,0.1-4.4-2.1-6.4-2.6c-2.1-0.5-3.2-0.9-3.6-1.2c-0.7-0.6-1.9-3.8-1.9-4.3
		c0-0.1-0.8-1.4-0.7-1.6c0.1-0.2,1.9,3.4,1.9,3V38.3c0-0.2-0.1-0.4-0.2-0.6s-2.8-3.2-3.1-3.4c0.1-0.8,8,1.9,4.7,1.2
		c0.3-0.1,1.1-0.1,2.2,0c1.4,0.1,2.5,0.3,3.5,0.5C93.6,36.5,97,39.7,97,40.4z"/>
	<path class="st0" d="M127.6,35.3c-1.7,4.3-5.2,14.1-7.3,22.8c-1.9,7.8-2.9,12.3-2.8,13.3c0,0.1,0,0.8,0.1,2.2
		c0.1,0.7-0.1,1.4-0.3,2c-0.3,0.8,3.6,3.4,3,3.5c-0.9,0.2-7.1-2.4-9.9-3.3c-2.8-0.9-4.4-1.7-4.8-2.3c-0.2-0.3-0.3-0.7-0.3-1.2
		c0-0.6-0.1-1.1-0.1-1.3c-3.7-11.5-5.8-21.9-6.6-31.1c0-0.2-0.1-0.5-0.2-1c-0.1-0.4-0.1-0.7-0.1-1c0.2-1.1-2.6-4.1-1.8-4.4
		c0.4-0.1,4.9,2.5,7.2,3.2c2.4,0.8,3.8,1.4,4,2c0.1,0.3,0.1,1,0,2c0,0.2-0.1,0.5-0.3,0.8c-0.2,0.4-0.3,0.7-0.2,0.9
		c0.5,3.4,0.9,6.3,1.3,8.9c1,6.1,1.8,9.8,2.4,10.9c0.5-3,1.5-6.8,2.9-11.4s2.3-8.5,2.9-11.6c0-0.6,0.2-1.4,0.4-2.5
		c0.3-0.8,0.9-1.3,1.6-1.5c0.5-0.2,1.7,0.1,3.6,0.8C124.2,37,127.1,34.5,127.6,35.3z"/>
	<path class="st0" d="M133.8,45.2c0.1,0.3-0.1,1-0.6,1.8c-0.5,1,0-0.6,0,0c0,0.3-0.7,2.9-0.8,3.5c-0.1,0.9-0.4,1.5-0.8,1.6
		c-0.4,0.2,1.7,0.8,0,0s-5.8-2.3-5.9-2.7c-0.2-0.3,0.1-1.2,0.7-2.7c0.5-1.3,1-2.2,1.3-2.9c0.2-0.3,0.5-0.5,1.1-0.5
		c-0.2,0,0.8,0.2,2.9,0.6C132.9,44.1,133.6,44.5,133.8,45.2L133.8,45.2z M133.8,67.2c0.1,0.3-0.1,1-0.6,1.8c-0.5,1-0.8,1.7-0.8,2.3
		c0,0.3,0,0.6,0,1.1c-0.1,0.9,0.8,4.9,0.4,5.1c-0.4,0.2-2.7-3.6-4.4-4.3c-1.7-0.8-2.6-1.4-2.8-1.8c-0.2-0.3,0.1-1.2,0.7-2.7
		c0.5-1.3,1-2.2,1.3-2.9c0.2-0.3,0.5-0.5,1.1-0.5c-0.2,0,0.8,0.2,2.9,0.6C132.9,66.2,133.6,66.6,133.8,67.2z"/>
</g>
</svg>
