<?xml version="1.0" encoding="UTF-8"?>
<svg id="Layer_1" data-name="Layer 1" xmlns="http://www.w3.org/2000/svg" viewBox="0 0 731.36 496.7">
  <defs>
    <style>
      .cls-1 {
        fill: none;
        stroke: #000;
        stroke-miterlimit: 10;
        stroke-width: 8px;
      }

      .cls-2 {
        fill: #fac49f;
      }

      .cls-2, .cls-3, .cls-4, .cls-5, .cls-6, .cls-7, .cls-8, .cls-9, .cls-10, .cls-11, .cls-12, .cls-13, .cls-14 {
        stroke-width: 0px;
      }

      .cls-3 {
        fill: #2a4b9a;
      }

      .cls-4 {
        fill: #893712;
      }

      .cls-5 {
        fill: #1c2021;
      }

      .cls-6 {
        fill: #0f0c0c;
      }

      .cls-7 {
        fill: #403631;
      }

      .cls-8 {
        fill: #433834;
      }

      .cls-9 {
        fill: #433934;
      }

      .cls-10 {
        fill: #1f78be;
      }

      .cls-11 {
        fill: #1e1e1c;
      }

      .cls-12 {
        fill: #fff;
      }

      .cls-13 {
        fill: #f18871;
      }

      .cls-14 {
        fill: #010101;
      }
    </style>
  </defs>
  <g>
    <ellipse class="cls-1" cx="289.23" cy="346.28" rx="70.13" ry="57.79"/>
    <ellipse class="cls-8" cx="289.23" cy="348.72" rx="13.67" ry="10.77"/>
    <polyline class="cls-8" points="305.86 294.88 291.3 339.23 295.68 339.23 306.49 295.28"/>
    <polygon class="cls-8" points="313.9 297.44 295.68 339.23 298.39 340.74 313.9 297.44"/>
    <polygon class="cls-8" points="322.07 300.91 299.89 341.99 301.23 343.58 323.43 300.91 322.07 300.91"/>
    <polygon class="cls-8" points="302.04 345 340.37 314.07 341.61 315.15 302.04 345"/>
    <polygon class="cls-8" points="302.7 346.99 352.74 335.49 353.61 337.95 302.89 348.72 302.7 346.99"/>
    <polygon class="cls-8" points="302.7 351.28 352.99 354.87 352.37 357.74 302.7 351.28"/>
    <polygon class="cls-8" points="290.4 359.5 289.23 399.02 296.46 399.02 290.4 359.5"/>
    <polygon class="cls-8" points="308.17 396.82 295.68 358.22 298.89 356.34 336.61 382.91 330.75 387.19 323.43 391.42 314.41 395.17 308.17 396.82"/>
    <polyline class="cls-8" points="282.95 358.29 264 395.05 258.89 393.24 281.75 357.74 234.71 374.78 276.17 351.9"/>
    <polygon class="cls-8" points="275.56 348.72 225.64 357.25 224.49 351.9 275.56 348.72"/>
    <polygon class="cls-8" points="225.4 336.94 278.04 342.54 267.75 296.38 261.82 298.43 254.71 301.55 247 305.97 240.14 311.54 234.71 317.06 230.31 323.18 227.51 329.16 225.4 334.16 224.49 336.53 225.4 336.94"/>
    <polygon class="cls-8" points="282.14 339.23 275.56 331.41 278.04 342.54 282.14 339.23"/>
    <polygon class="cls-8" points="286.96 337.95 283.88 293.35 291.3 292.7 286.96 337.95"/>
    <ellipse class="cls-1" cx="74.13" cy="345" rx="70.13" ry="57.79"/>
    <ellipse class="cls-8" cx="74.13" cy="347.45" rx="13.67" ry="10.77"/>
    <polyline class="cls-8" points="90.76 293.61 76.2 337.95 80.58 337.95 91.39 294"/>
    <polygon class="cls-8" points="98.81 296.17 80.58 337.95 83.29 339.46 98.81 296.17"/>
    <polygon class="cls-8" points="106.97 299.64 84.79 340.71 86.14 342.3 108.33 299.64 106.97 299.64"/>
    <polygon class="cls-8" points="86.94 343.73 125.28 312.8 126.51 313.88 86.94 343.73"/>
    <polygon class="cls-8" points="87.61 345.71 137.64 334.21 138.51 336.68 87.79 347.45 87.61 345.71"/>
    <polygon class="cls-8" points="87.61 350.01 137.89 353.59 137.27 356.47 87.61 350.01"/>
    <polygon class="cls-8" points="75.3 358.22 74.13 397.74 81.37 397.74 75.3 358.22"/>
    <polygon class="cls-8" points="93.07 395.54 80.58 356.94 83.79 355.06 121.52 381.63 115.65 385.91 108.33 390.15 99.31 393.89 93.07 395.54"/>
    <polyline class="cls-8" points="67.86 357.02 48.9 393.78 43.79 391.96 66.66 356.47 19.61 373.51 61.07 350.63"/>
    <polygon class="cls-8" points="60.46 347.45 10.54 355.97 9.39 350.63 60.46 347.45"/>
    <polygon class="cls-8" points="10.3 335.67 62.95 341.26 52.65 295.11 46.72 297.16 39.61 300.27 31.9 304.69 25.04 310.27 19.61 315.78 15.21 321.9 12.42 327.88 10.3 332.88 9.39 335.26 10.3 335.67"/>
    <polygon class="cls-8" points="67.04 337.95 60.46 330.13 62.95 341.26 67.04 337.95"/>
    <polygon class="cls-8" points="71.86 336.68 68.78 292.07 76.2 291.43 71.86 336.68"/>
    <polygon class="cls-11" points="129.31 254.69 136.36 251.67 155.41 325.79 148.78 327.51 136.77 287.44 134.25 274.7 78.61 346.34 72.56 345.61 129.31 254.69"/>
    <polygon class="cls-10" points="260.22 250.81 265.19 269.77 165.15 358.97 75.46 352.94 89.1 346.34 150.23 346.34 159.14 345.61 195.98 309.11 246.97 262.38 139.26 262.98 136.36 251.67 260.22 250.81"/>
    <polyline class="cls-11" points="244.54 223.4 298.4 222.54 300.95 224.09 302.04 226.11 302.04 227.51 298.59 229.1 295.29 230.08 296.77 236.32 296.84 240.8 295.87 244.4 292.54 248.74 287.41 252.04 282.2 254.11 278.48 254.44 276.78 253.02 276.78 251.21 276.78 249.56 280.27 247.94 284.34 246.89 287.33 245.54 289.51 243.52 290.31 241.11 290.53 239.09 290.53 236.31 288.66 234.57 288.02 233.3 286.03 232.07 284.25 231.21 282.66 229.77 280.17 229.19 279.07 229.49 277.33 235.83 275.62 239.83 270.31 244.18 266.29 245.99 262.58 246.74 261.11 246.67 260.5 248.12 261.02 249.69 259.88 252.08 258.41 253.13 253.33 253.98 249.31 254.43 249.79 250.52 250.45 246.4 249.33 242.09 247.29 236.71 245.49 231.66 244.54 226.69 243.97 224.48"/>
    <polygon class="cls-11" points="265.19 269.77 256.99 277.08 283.88 350.01 286.63 352.98 289.23 352.98 291.3 351.9 291.3 348.72 265.19 269.77"/>
  </g>
  <ellipse class="cls-7" cx="156.27" cy="344.36" rx="19.77" ry="20.1"/>
  <g>
    <g>
      <g>
        <path class="cls-5" d="m253.26,212c2.9,2.36,5.32,5.36,8.49,7.43h.35c5.13,3.29,14.86.2,18.4,6.01.75,2.51-5.82,4.68-8.67,4.95-2.37.23-8.32-.65-10.61-1.42-5.05-1.69-10.89-8.02-11.5-3.54-4.63-.86-11.23-.95-15.57-2.12-12.27-3.32-3.99-16.52,4.42-17.69,7.54-1.05,10.36,2.85,14.68,6.37Z"/>
        <path class="cls-5" d="m280.5,225.44c3.22,5.29-7.44,9.03-14.68,8.14-5.62-.69-10.79-5.35-15.74-7.78l-.35-.35c.61-4.49,6.45,1.85,11.5,3.54,2.29.77,8.24,1.64,10.61,1.42,2.84-.27,9.42-2.45,8.67-4.95Z"/>
      </g>
      <g>
        <path class="cls-5" d="m185.43,238.91c1.94,1.3,6.8,5.7,7.08,7.78.28,2.14-1.19,5.52-2.12,7.43-1.75.4-8.73,4.74-7.96,6.37-6.16,1.74-1.39-1.81-2.83-2.83-17.32.49-34.8.35-51.65-4.25-2.51-.69-8.96-2.63-8.31-3.54,5.41-1.73,10.66-3.53,15.92-5.66,16.47,2.27,34.39,1.27,49.88-5.31Z"/>
        <path class="cls-6" d="m220.16,231.96c3.93.86,13.77.04,14.86,5.31.13.64-.85,3.38.18,4.6l10.44.71c-4.3.32-8.6.57-12.91.71-4.33,4.34-8.65,3.79-13.44.35-8.27,2.11-16.9,2.18-25.29,3.18l24.94-14.86h1.24Z"/>
      </g>
    </g>
    <path class="cls-3" d="m118.38,247.15l-7.43,2.12-1.77-.18,2.38-2.58-.61-1.14h-2.83v-3.73l.35-1.22-4.25.05-1.05-.23,3.45-3.52v-2.5s2.56-1.95,2.56-1.95l1.41-1.33-2.47-.92h-3.72l3.01-3.05.35-1.42-2.83.38-1.77.33-2.12-2.65,2.12-1.77,1.42-1.59,3.45.1.37-2.25-4.62.48,6.01-6.01-4.87.25,1.9-2.79-3.67,1,7.08-7.59-6.45,2.73,3.98-2.9,2.83-2.48-5.66,1.42,7.08-3.71-5.25,1.08,3.48-2.85-6.02-.02,6.81-5.21-7.15,1.34,8.24-7.26-5.61,1.07,5.75-5.4-4.33,1.16,6.38-4.07h-6.38l8.31-4.77-7.22.72,6.74-2.86-1.96-2.28,5.31-4.07-1.4-1.47,3.17-5.25-.9-2.12,2.67-2.12-2.35-1.06,9.08-4.95-3.89-.88,4.95-5.48,8.87-.35-7.11-.71,1.59-4.53,2.3-1.83,8.31,2.12-3.89-3.89,3.71-4.6h6.9l-3.89-2.12,2.83-.71.53-2.3,4.42-2.65,5.54,1.66-3.07-2.72h7.48s1.48-1.66,1.48-1.66l-3.65-2.58,4.03-.48-2.44-.94,8.54.61-3.57-2.83,4.94-.78.35-1.42,4.22.11-2.1-2.76,8.31,1.77-2.3-2.65,6.37.53-1.77-2.48,3.81,2.04-.63-2.39,1.89-.95,7.31,3.12-2.12-4.12,5.66-.88,3.59,4.22-1.29-4.58,5.48,4.6-2.12-5.66,2.48.12,4.24.77,8.43-.83,10.42,1.37,11.4,2.83,9.78,2.17,10.79,2.94,8.9,3.49,3.91,2.44,2.97,1.95,1.77,4.35-.39,7.43-1.65,9.99.54,5.45-19.05-.96-7.45-1.48c-.87-.17-1.66-.62-2.25-1.28l-2.34-2.62c-.52-.58-1.21-.98-1.97-1.14l-4.94-1.04c-.61-.13-1.24-.15-1.86-.06l-4.87.7c-1.06.15-2.05.62-2.83,1.35l-2,1.84c-.31.29-.55.64-.69,1.04l-.84,2.29c-.45,1.22-.59,2.52-.41,3.81l.51,3.67c.01.08.03.16.04.24l1.41,6.82c.14.66.34,1.31.61,1.93l1.34,3.07-16.98,18.75-26.21,26.86-43.21,32.45-28.59,12.86h-7.23l5.66-5.31Z"/>
    <path class="cls-2" d="m140.78,242.09l37.8-26.34c.07-.05.14-.11.21-.17l31.86-29.24s.08-.07.11-.11l22.81-24.52c.46-.5,1.15-.73,1.81-.61l4.47-.73c.56.1,1.48-.48,1.93-.82l5.72-3.34s1.33-1,1.35-1.03l5.59-5.65c.29-.25,1.61-2.11,1.72-2.48l2.06-4.61c.25-.81,2.28-1.49,3.12-1.53l18.83-.84c.9-.04,1.72.53,2,1.4l2.68,8.5c.11.34.31.65.58.89l12.67,11.3c.12.11.26.21.41.28l8.76,4.55c.13.07.27.12.42.16l11.43,2.96c.18.05.37.07.56.06l7.97-.22c.25,0,.5.03.73.12l2.05.73c.64.23,1.12.77,1.28,1.44l.45,1.97c.1.44.05.9-.15,1.31l-1.92,4.01c-.22.46-.6.81-1.07,1l-7.55,2.97c-.08.03-.16.06-.25.08l-4.06,1.01s-.08.02-.12.04l-8.55,2.73c-.2.06-.41.1-.62.1l-6.17-.02c-.17,0-.34.02-.51.06l-2.49.64h0c1.87.76,1.57,3.49-.42,3.83l-10.15,1.71c-.1.02-.21.04-.31.08l-12.5,4.21c-.17.06-.34.14-.49.24l-13.09,8.91-10.27,6.5-7.08,4.95-14.21,8.9s-.07.04-.11.06l-15.68,8.53s-.1.05-.14.09l-18.88,12.4c-.72.48-1.67.43-2.35-.11l-4.94-3.96c-.31-.25-.53-.58-.65-.95l-.54-1.7c-.34-1.08-1.51-1.66-2.58-1.28l-5.94,2.12c-.11.04-.21.07-.32.09l-7.62,1.35-6.98,1.52c-.12.03-.25.04-.37.05l-7.95.22-11.21.06c-.07,0-.15,0-.22-.01l-1.99-.21c-1.84-.2-2.45-2.57-.93-3.63Z"/>
    <path class="cls-9" d="m304.15,190.69c-.49.25-1,.42-1.54.51l-.91.15-3.41.57-2.76.46-2.87.48c-.26.04-.53.03-.79-.04l-1.89-.5-1.56-.48c-.21-.06-.43-.09-.65-.08l-2.87.15-4.03.26c-.11,0-.22,0-.34,0l-2.94-.34-.7-.49-.28-.67v-.36s.58-.98.58-.98l.31-.44,3.07-.39s.07,0,.1-.01l8.42-.61,8.18-.58,8.3-.71,6.16-.72.14-.02,5.24-1.26c.13-.03.45-.21.58-.27l.75-.25c.2-.09.53-.21.69-.36l-.11.11c.47-.46,1.14-.63,1.77-.47l.28.27-.03.61c-.12.12-.26.22-.41.3l-1.84.99c-.12.07-.26.12-.39.16l-1.57.43s-.09.02-.13.03l-2.06.41c-.06.01-.11.03-.17.04l-1.04.31c-.09.03-.19.05-.28.06l-1.69.23-2.15.25-1.82.28c-.1.01-.19.02-.29.02h-1.63s-.08,0-.11,0l-2.22.13-1.96.06s-.09,0-.14,0l-2.06.22.64.17,1.08.44.89.36.91.39.87.19c.18.04.35.11.51.2l.22.39-.07.36Z"/>
    <path class="cls-4" d="m261.18,140.69c-1.06,4.78-9.06,16.85-25.01,19.83-5.59,1.04-4.24-10.2-6.04-20.98-.81-4.85,3.45-12.15,9.03-10.92,5.58,1.24,23.08,7.29,22.02,12.07Z"/>
    <path class="cls-13" d="m259.42,142.97c-1.36,2.99-8.84,13.02-20.5,14.57-4.56.61,4.04-10.86,2.57-18.14-.66-3.28,2.08-6.4,6.19-5.48,4.11.91,13.74,4.67,11.74,9.05Z"/>
    <circle class="cls-14" cx="281.09" cy="167.77" r="5.9"/>
    <path class="cls-12" d="m284.99,165.75c0-.89-1.88-2.55-3.02-2.55s-.7,1.47-.09,2.12c.4.43.62,1.07,1.85,1.02,1.14-.04,1.26.3,1.26-.59Z"/>
    <path class="cls-12" d="m280.52,165.19c.2-.92.73-.05,1.02.35s.79.81.51,1.01-1.23.11-1.51-.28-.09-.74-.02-1.07Z"/>
    <polygon class="cls-6" points="321.09 183.63 318.91 180.08 318 177.68 317.56 175.28 317.56 172.92 317.85 171.39 318.8 169.86 320.73 170.06 321.89 170.03 324.1 169.97 326.07 169.86 327.36 169.86 328.66 169.98 329.64 170.33 330.7 170.71 331.34 171.08 331.83 171.74 332.48 173.21 332.43 174.12 332.48 174.75 332.28 175.43 331.88 176.28 331.41 177.25 330.94 178.24 330.36 179.44 329.83 180.12 329.29 180.44 328.02 180.94 326.56 181.48 325.14 182.05 322.77 183 321.74 183.41 321.09 183.63"/>
    <polygon class="cls-6" points="317.85 171.39 307.87 168.14 300.66 164.05 294.82 160.61 288.18 155.22 285.35 152.18 283.52 148.83 282.05 145.07 281.26 142.21 281.09 139.9 281.93 139.9 283.03 143.05 283.53 144.5 283.99 145.82 285.22 148.48 286.96 151.12 289.9 153.91 292.85 156.63 296.17 159.22 299.15 161.17 302.82 163.57 306.44 165.77 309.77 167.28 312.85 168.32 317.04 169.41 318.8 169.86 317.85 171.39"/>
    <path class="cls-5" d="m247.5,217.84c3.29,2.89,6.05,6.57,9.64,9.1h.4c5.82,4.04,16.87.25,20.89,7.37.85,3.07-6.61,5.74-9.84,6.07-2.69.28-9.45-.79-12.05-1.73-5.73-2.07-12.36-9.83-13.06-4.33-5.26-1.05-12.75-1.16-17.67-2.6-13.93-4.07-4.53-20.24,5.02-21.67,8.56-1.28,11.76,3.49,16.67,7.8Z"/>
  </g>
</svg>