<?xml version="1.0" encoding="UTF-8"?>
<svg id="Layer_1" data-name="Layer 1" xmlns="http://www.w3.org/2000/svg" xmlns:xlink="http://www.w3.org/1999/xlink" viewBox="0 0 688.94 577.26">
  <defs>
    <style>
      .cls-1 {
        letter-spacing: -.04em;
      }

      .cls-2 {
        letter-spacing: -.02em;
      }

      .cls-3 {
        letter-spacing: -.02em;
      }

      .cls-4 {
        letter-spacing: 0em;
      }

      .cls-5 {
        letter-spacing: -.02em;
      }

      .cls-6 {
        letter-spacing: 0em;
      }

      .cls-7 {
        fill: #1d1d1b;
        font-family: Charm-Regular, Charm;
        font-size: 36px;
        stroke: #e30613;
      }

      .cls-7, .cls-8, .cls-9 {
        stroke-miterlimit: 10;
      }

      .cls-10 {
        fill: #0b2b3e;
        opacity: .77;
      }

      .cls-10, .cls-11, .cls-12 {
        stroke-width: 0px;
      }

      .cls-8 {
        fill: #9d9d9c;
        stroke-width: .25px;
      }

      .cls-8, .cls-9 {
        stroke: #1d1d1b;
      }

      .cls-13 {
        letter-spacing: -.01em;
      }

      .cls-14 {
        letter-spacing: -.01em;
      }

      .cls-15 {
        letter-spacing: -.01em;
      }

      .cls-16 {
        letter-spacing: -.01em;
      }

      .cls-17 {
        letter-spacing: 0em;
      }

      .cls-18 {
        letter-spacing: 0em;
      }

      .cls-11 {
        fill: #4d4c4c;
      }

      .cls-12 {
        fill: #fff;
      }

      .cls-9 {
        fill: url(#linear-gradient);
      }
    </style>
    <linearGradient id="linear-gradient" x1=".5" y1="202.5" x2="612.5" y2="202.5" gradientUnits="userSpaceOnUse">
      <stop offset="0" stop-color="#bf1818"/>
      <stop offset="0" stop-color="#ba1717"/>
      <stop offset=".07" stop-color="#a01714"/>
      <stop offset=".14" stop-color="#8d1711"/>
      <stop offset=".21" stop-color="#811710"/>
      <stop offset=".28" stop-color="#7e1710"/>
      <stop offset=".67" stop-color="#e83856"/>
      <stop offset=".89" stop-color="#e95f32"/>
      <stop offset="1" stop-color="#e3312d"/>
    </linearGradient>
  </defs>
  <path class="cls-9" d="m612.5.5H.5v202.25h.48v143.35c3.89,32.88,31.84,58.4,65.77,58.4h545.75V.5Z"/>
  <path class="cls-8" d="m316.01,264.12c-132.22,0-249.29,28.01-315.48,69.81v82.54l315.48-4.07,296.46,1.83v-91.19c-68.3-35.7-176.09-58.91-296.46-58.91Z"/>
  <path class="cls-8" d="m687.93,564.66v12.47h.84c.03-.76.04-1.52.04-2.29,0-3.42-.3-6.81-.89-10.18Z"/>
  <ellipse class="cls-12" cx="142.86" cy="78.01" rx="18.13" ry="16.2"/>
  <ellipse class="cls-12" cx="264.48" cy="56.16" rx="33.69" ry="21.27"/>
  <ellipse class="cls-12" cx="310.55" cy="44.66" rx="33" ry="23.65"/>
  <ellipse class="cls-12" cx="340.8" cy="48.78" rx="30.25" ry="22.57"/>
  <ellipse class="cls-12" cx="313.98" cy="75.69" rx="36.44" ry="26.91"/>
  <ellipse class="cls-12" cx="353.17" cy="80.03" rx="42.62" ry="18.23"/>
  <ellipse class="cls-12" cx="368.3" cy="60.17" rx="27.5" ry="15.51"/>
  <ellipse class="cls-12" cx="277.55" cy="76.56" rx="33" ry="14.76"/>
  <ellipse class="cls-12" cx="547.7" cy="128.03" rx="15.92" ry="22.21"/>
  <ellipse class="cls-12" cx="569.47" cy="116.02" rx="15.59" ry="24.71"/>
  <ellipse class="cls-12" cx="583.76" cy="120.32" rx="14.29" ry="23.57"/>
  <ellipse class="cls-12" cx="571.09" cy="148.43" rx="17.22" ry="28.1"/>
  <ellipse class="cls-12" cx="589.61" cy="152.96" rx="20.14" ry="19.04"/>
  <ellipse class="cls-12" cx="596.76" cy="132.22" rx="12.99" ry="16.2"/>
  <ellipse class="cls-12" cx="553.88" cy="149.33" rx="15.59" ry="15.41"/>
  <circle class="cls-12" cx="106.6" cy="134.83" r="22.21"/>
  <ellipse class="cls-11" cx="76.23" cy="122.82" rx="21.76" ry="24.71"/>
  <ellipse class="cls-11" cx="56.28" cy="127.13" rx="19.94" ry="23.57"/>
  <ellipse class="cls-11" cx="73.96" cy="155.23" rx="24.02" ry="28.1"/>
  <ellipse class="cls-11" cx="48.13" cy="159.76" rx="28.1" ry="19.04"/>
  <ellipse class="cls-11" cx="97.99" cy="156.14" rx="21.76" ry="15.41"/>
  <polygon class="cls-12" points="335.59 396.1 294.42 396.1 299.62 325.39 328.35 325.39 335.59 396.1"/>
  <polygon class="cls-12" points="328.35 288.73 299.62 288.73 301.65 264.22 325.7 264.22 328.35 288.73"/>
  <polygon class="cls-10" points="487 86.51 487 347.24 155.72 314.28 155.72 132.38 487 86.51"/>
  <text class="cls-7" transform="translate(201.97 189.06)"><tspan class="cls-3" x="0" y="0">N</tspan><tspan x="23.47" y="0">IV</tspan><tspan class="cls-14" x="58.97" y="0">E</tspan><tspan class="cls-17" x="76.9" y="0">A</tspan><tspan x="96.84" y="0">U F</tspan><tspan class="cls-2" x="148.64" y="0">E</tspan><tspan class="cls-18" x="166.25" y="0">J</tspan><tspan class="cls-13" x="182.77" y="0">L</tspan><tspan class="cls-4" x="199.91" y="0">ET</tspan><tspan class="cls-1" x="30.28" y="43.2">N</tspan><tspan class="cls-15" x="53.1" y="43.2">Ø</tspan><tspan x="74.59" y="43.2">RREB</tspan><tspan class="cls-5" x="155.73" y="43.2">R</tspan><tspan x="176.4" y="43.2">O </tspan><tspan x="33.7" y="86.4">BRÆ</tspan><tspan class="cls-13" x="102.56" y="86.4">N</tspan><tspan class="cls-16" x="126.36" y="86.4">D</tspan><tspan class="cls-6" x="148.1" y="86.4">E</tspan><tspan x="166.21" y="86.4">R!!</tspan></text>
  <ellipse class="cls-11" cx="96.63" cy="139.03" rx="21.76" ry="24.71"/>
  <ellipse class="cls-11" cx="319.09" cy="39.51" rx="43.18" ry="28.52"/>
  <ellipse class="cls-11" cx="279.52" cy="44.48" rx="39.58" ry="27.21"/>
  <ellipse class="cls-11" cx="314.6" cy="76.92" rx="47.67" ry="32.44"/>
  <ellipse class="cls-11" cx="266.92" cy="86.73" rx="55.77" ry="21.98"/>
  <ellipse class="cls-11" cx="243.54" cy="58.21" rx="35.98" ry="18.71"/>
  <ellipse class="cls-11" cx="362.27" cy="84.03" rx="43.18" ry="21.79"/>
  <ellipse class="cls-11" cx="362.27" cy="48.4" rx="43.18" ry="28.52"/>
  <ellipse class="cls-11" cx="133.75" cy="61.04" rx="16.93" ry="41.77"/>
  <ellipse class="cls-11" cx="118.23" cy="68.32" rx="15.52" ry="39.85"/>
  <ellipse class="cls-11" cx="131.99" cy="115.84" rx="18.7" ry="47.52"/>
  <ellipse class="cls-11" cx="111.88" cy="123.5" rx="21.87" ry="32.19"/>
  <ellipse class="cls-11" cx="104.12" cy="88.44" rx="14.11" ry="27.4"/>
  <ellipse class="cls-11" cx="150.68" cy="117.37" rx="16.93" ry="26.06"/>
  <ellipse class="cls-11" cx="149.62" cy="88.44" rx="16.93" ry="41.77"/>
  <ellipse class="cls-11" cx="571.95" cy="115.36" rx="20.26" ry="35.33"/>
  <ellipse class="cls-11" cx="553.38" cy="121.52" rx="18.57" ry="33.71"/>
  <ellipse class="cls-11" cx="569.84" cy="161.71" rx="22.37" ry="40.19"/>
  <ellipse class="cls-11" cx="545.78" cy="168.2" rx="27.23" ry="26.17" transform="translate(340.9 701.29) rotate(-86.11)"/>
  <ellipse class="cls-11" cx="536.49" cy="138.54" rx="16.88" ry="23.18"/>
  <ellipse class="cls-11" cx="592.21" cy="163.01" rx="20.26" ry="22.04"/>
  <ellipse class="cls-11" cx="590.94" cy="134.04" rx="20.26" ry="39.83"/>
</svg>