<?xml version="1.0" encoding="UTF-8"?>
<svg id="Layer_1" data-name="Layer 1" xmlns="http://www.w3.org/2000/svg" viewBox="0 0 350.77 106.8">
  <defs>
    <style>
      .cls-1 {
        fill: none;
        stroke: #000;
        stroke-miterlimit: 10;
        stroke-width: 6px;
      }

      .cls-2 {
        fill: #010101;
        stroke-width: 0px;
      }
    </style>
  </defs>
  <rect class="cls-1" x="3" y="3" width="344.77" height="100.8" rx="38.13" ry="38.13"/>
  <g>
    <path class="cls-2" d="m85.39,45.35c-.26,0,.03-5-.42-5.2-.45-.21-.82-.28-1.1-.22l-4.94,1.34v25.25c0,.93.22,1.94.67,3.02.13.32.1.93-.1,1.82-.19.99-.5,1.62-.91,1.87-.06.03-.22.05-.48.05-1.06,0-2.53-.21-4.42-.62-2.11-.48-3.36-.94-3.74-1.39-.45-.58-.43-1.34.05-2.3.42-.83.62-1.44.62-1.82l2.45-27.09-5.86,4.19c-.16.03-1.09.74-.79.41,4.31-4.81-.22,4.22-.47,4.15-.74-.19-2.21-5.03-3.49-6.75-1.28-1.71-1.84-2.87-1.68-3.48.26-.74,1.01-1.3,2.26-1.68.32-.1.74-.11,1.25-.05.51.06.91.06,1.2,0l16.7-4.27c.16-.03.62-.22,1.39-.58.51-.22.98-.3,1.39-.24.9.13,1.5.48,1.82,1.06.22.38.46,1.1.72,2.16.32,1.25.48,2.34.48,3.26,0,.7-.09,1.24-.26,1.61-.18.37-1.38,5.46-2.34,5.49Z"/>
    <path class="cls-2" d="m100.56,34.69c1.55,3.64-.07.53-.22.91-.14.38-.23.62-.26.72-.19.64-.38,1.63-.58,2.98v29.47c0,.38.1.73.29,1.03.19.3,2.14,6.34,2.14,6.53,0,2.05-2.24-2.63-3.01-2.47-.29.06-1.41-.14-3.36-.62-2.05-.51-3.23-.91-3.55-1.2-.7-.61-.63.4-4.52-2.07-.11-.07,3.53.11,3.66-.05.13-.16.19-.43.19-.82v-33.84c0-.19-.06-.39-.17-.6-.11-.21-2.65-1.59-2.65-1.78.06-.77,3.14-.1,4.26-.35.35-.06,1.09-.06,2.21,0,1.38.1,2.53.27,3.46.53,1.41.38,1.84.98,2.11,1.63Z"/>
    <path class="cls-2" d="m128.02,48.37c0,3.49-.94,7.28-2.83,11.38-1.5,3.3-3.39,6.4-5.66,9.31-2.02,2.5-3.5,3.95-4.46,4.37-.48.19-1.02.29-1.63.29-1.41,0-3.01-.45-4.8-1.34-1.6-.74-4.87,7.63-5.67,6.76l1.28-46.65c.1-.83,4.52,1.77,5.38,1.61.1-.03-2.26-.09-.76.17.29.03,1.24-.3,2.86-1.01,1.62-.7,3-1.06,4.15-1.06,1.41,0,2.75.37,4.03,1.1.74.45,1.84,1.31,3.31,2.59,2.14,1.86,3.54,3.81,4.18,5.86.42,1.38.62,3.58.62,6.62Zm-7.97-9.26c-.16-.1-.42-.14-.77-.14-1.7,0-3.73.74-6.1,2.21v21.6c2.18-1.25,4.03-4.3,5.57-9.17,1.31-4.19,1.97-8,1.97-11.42,0-1.79-.22-2.82-.67-3.07Z"/>
    <path class="cls-2" d="m139.39,45.11c.06.35-.13.96-.58,1.82-.51.96-.77,1.73-.77,2.3.03.26.03.64,0,1.15-.13.93-.38,1.47-.77,1.63-.45.19-1.5-.1-3.17-.89-1.66-.78-2.59-1.38-2.78-1.8-.16-.29.06-1.18.67-2.69.51-1.28.96-2.24,1.34-2.88.19-.32.54-.48,1.06-.48-.19,0,.77.19,2.88.58,1.28.22,1.98.64,2.11,1.25Zm0,22.08c.06.35-.13.96-.58,1.82-.51.96-.77,1.73-.77,2.3.03.26.03.62,0,1.1-.13.93-.38,1.47-.77,1.63-.45.19-1.5-.1-3.17-.89-1.66-.78-2.59-1.37-2.78-1.75-.16-.29.06-1.18.67-2.69.51-1.28.96-2.24,1.34-2.88.19-.32.54-.48,1.06-.48-.19,0,.77.19,2.88.58,1.28.22,1.98.64,2.11,1.25Z"/>
  </g>
  <g>
    <path class="cls-2" d="m183.33,26.79c1.57.49,2.82,2.81,3.74,6.95.83,3.88,1.25,8.69,1.25,14.44,0,6.69-.66,13.28-1.97,19.79-1.89,9.32-.2,15.88-.63,18.84-.08.57-8.9-5.07-9.74-5.47-1.34-.71-2.08-1.09-2.21-1.14-.86-.49-2.29-1.23-4.27-2.21-1.6-.76-2.91-3.92-3.94-9.49-.96-5.21-1.44-11.16-1.44-17.85s.5-12.3,1.49-16.98c1.09-5.26,2.67-8.4,4.75-9.43.13-.04.26-.07.38-.07.22,0,.5.13.82.4.32.27.56.36.72.27.93-.44,1.89-.67,2.88-.67,1.12,0,2.5.33,4.13,1,2.4.98,3.74,1.52,4.03,1.6Zm-6.05,4.28c-1.54,0-2.74,2.41-3.6,7.22-.67,3.92-1.01,8.45-1.01,13.57,0,4.1.34,8.51,1.01,13.24.67,4.72,1.33,7.09,1.97,7.09,1.25,0,2.27-2.72,3.07-8.16.67-4.81,1.01-10.38,1.01-16.71,0-4.63-.19-8.42-.58-11.36-.45-3.25-1.07-4.88-1.87-4.88Z"/>
    <path class="cls-2" d="m231.91,42.16c.06.49-.13,1.34-.58,2.54-.51,1.34-.77,2.41-.77,3.21.03.36.03.89,0,1.6-.13,1.29-.38,2.05-.77,2.27-.45.27-1.5-.14-3.17-1.24-1.66-1.09-2.59-1.93-2.78-2.51-.16-.4.06-1.65.67-3.74.51-1.78.96-3.12,1.34-4.01.19-.45.54-.67,1.06-.67-.19,0,.77.27,2.88.8,1.28.31,1.98.89,2.11,1.74Zm0,30.75c.06.49-.13,1.34-.58,2.54-.51,1.34-.77,2.41-.77,3.21.03.36.03.87,0,1.54-.13,1.29-.38,2.05-.77,2.27-.45.27-1.5-.15-3.17-1.24-1.66-1.09-2.59-1.91-2.78-2.44-.16-.4.06-1.65.67-3.74.51-1.78.96-3.12,1.34-4.01.19-.44.54-.67,1.06-.67-.19,0,.77.27,2.88.8,1.28.31,1.98.89,2.11,1.74Z"/>
    <path class="cls-2" d="m213.12,26.97c1.57.49,2.82,2.81,3.74,6.95.83,3.88,1.25,8.69,1.25,14.44,0,6.69-.66,13.28-1.97,19.79-1.89,9.32-.2,15.88-.63,18.84-.08.57-8.9-5.07-9.74-5.47-1.34-.71-2.08-1.09-2.21-1.14-.86-.49-2.29-1.23-4.27-2.21-1.6-.76-2.91-3.92-3.94-9.49-.96-5.21-1.44-11.16-1.44-17.85s.5-12.3,1.49-16.98c1.09-5.26,2.67-8.4,4.75-9.43.13-.04.26-.07.38-.07.22,0,.5.13.82.4.32.27.56.36.72.27.93-.44,1.89-.67,2.88-.67,1.12,0,2.5.33,4.13,1,2.4.98,3.74,1.52,4.03,1.6Zm-6.05,4.28c-1.54,0-2.74,2.41-3.6,7.22-.67,3.92-1.01,8.45-1.01,13.57,0,4.1.34,8.51,1.01,13.24.67,4.72,1.33,7.09,1.97,7.09,1.25,0,2.27-2.72,3.07-8.16.67-4.81,1.01-10.38,1.01-16.71,0-4.63-.19-8.42-.58-11.36-.45-3.25-1.07-4.88-1.87-4.88Z"/>
    <path class="cls-2" d="m256.19,26.97c1.57.49,2.82,2.81,3.74,6.95.83,3.88,1.25,8.69,1.25,14.44,0,6.69-.66,13.28-1.97,19.79-1.89,9.32-.2,15.88-.63,18.84-.08.57-8.9-5.07-9.74-5.47-1.34-.71-2.08-1.09-2.21-1.14-.86-.49-2.29-1.23-4.27-2.21-1.6-.76-2.91-3.92-3.94-9.49-.96-5.21-1.44-11.16-1.44-17.85s.5-12.3,1.49-16.98c1.09-5.26,2.67-8.4,4.75-9.43.13-.04.26-.07.38-.07.22,0,.5.13.82.4.32.27.56.36.72.27.93-.44,1.89-.67,2.88-.67,1.12,0,2.5.33,4.13,1,2.4.98,3.74,1.52,4.03,1.6Zm-6.05,4.28c-1.54,0-2.74,2.41-3.6,7.22-.67,3.92-1.01,8.45-1.01,13.57,0,4.1.34,8.51,1.01,13.24.67,4.72,1.33,7.09,1.97,7.09,1.25,0,2.27-2.72,3.07-8.16.67-4.81,1.01-10.38,1.01-16.71,0-4.63-.19-8.42-.58-11.36-.45-3.25-1.07-4.88-1.87-4.88Z"/>
    <path class="cls-2" d="m287.46,26.97c1.57.49,2.82,2.81,3.74,6.95.83,3.88,1.25,8.69,1.25,14.44,0,6.69-.66,13.28-1.97,19.79-1.89,9.32-.2,15.88-.63,18.84-.08.57-8.9-5.07-9.74-5.47-1.34-.71-2.08-1.09-2.21-1.14-.86-.49-2.29-1.23-4.27-2.21-1.6-.76-2.91-3.92-3.94-9.49-.96-5.21-1.44-11.16-1.44-17.85s.5-12.3,1.49-16.98c1.09-5.26,2.67-8.4,4.75-9.43.13-.04.26-.07.38-.07.22,0,.5.13.82.4.32.27.56.36.72.27.93-.44,1.89-.67,2.88-.67,1.12,0,2.5.33,4.13,1,2.4.98,3.74,1.52,4.03,1.6Zm-6.05,4.28c-1.54,0-2.74,2.41-3.6,7.22-.67,3.92-1.01,8.45-1.01,13.57,0,4.1.34,8.51,1.01,13.24.67,4.72,1.33,7.09,1.97,7.09,1.25,0,2.27-2.72,3.07-8.16.67-4.81,1.01-10.38,1.01-16.71,0-4.63-.19-8.42-.58-11.36-.45-3.25-1.07-4.88-1.87-4.88Z"/>
  </g>
</svg>